<svg xmlns="http://www.w3.org/2000/svg" width="49" height="54" fill="none">
  <path fill="#443B3B"
    d="M45.525 12.415 24.163.417 2.801 12.415l13.59 7.61c1.956-2.058 4.717-3.358 7.772-3.358 3.056 0 5.816 1.3 7.773 3.358l13.589-7.61ZM18.803 27.5c0-2.98 2.412-5.417 5.36-5.417 2.948 0 5.36 2.438 5.36 5.417 0 2.98-2.412 5.417-5.36 5.417-2.948 0-5.36-2.438-5.36-5.417Zm2.68 25.567L.04 41.042V17.046l13.75 7.719a10.203 10.203 0 0 0-.349 2.735c0 5.038 3.404 9.29 8.04 10.481v15.086Zm5.36 0V37.98c4.637-1.192 8.041-5.444 8.041-10.481 0-.948-.107-1.869-.348-2.735l13.75-7.72v23.997L26.843 53.067Z" />
</svg>